# xmcd
# 
# Track frame offsets:
#     187
#     18924
#     44547
#     78237
#     98447
#     129892
#     164354
#     186912
# 
# Disc length: 2668
# 
# Revision: 0
# Processed by: cddbd v1.5.2PL0 Copyright (c) Steve Scherf et al.
# Submitted via: BonkEnc v1.0.8
# 
DISCID=550a6a08
DTITLE=Evans Bradshaw - Look Out For Evans Bradshaw!
DYEAR=1958
DGENRE=Jazz
TTITLE0=Georgia On My Mind
TTITLE1=Hallelujah!
TTITLE2=The Prophet
TTITLE3=Love For Sale
TTITLE4=Coolin' The Blues
TTITLE5=Blueinet
TTITLE6=Angel Eyes
TTITLE7=Old Devil Moon
EXTD=YEAR: 1958
EXTT0=
EXTT1=
EXTT2=
EXTT3=
EXTT4=
EXTT5=
EXTT6=
EXTT7=
PLAYORDER=
